<svg width="18" height="19" viewBox="0 0 18 19" fill="none" xmlns="http://www.w3.org/2000/svg">
<path d="M17.4388 6.88847C17.0457 6.39617 16.5093 6.12431 15.9289 6.12431H14.6026C14.4777 2.72232 12.0126 0 9 0C5.98744 0 3.52229 2.72232 3.39738 6.12431H2.07112C1.49065 6.12431 0.954268 6.39617 0.561166 6.88847C0.0651964 7.50568 -0.114822 8.36536 0.0725442 9.19197L1.66332 16.2017C1.90212 17.2597 2.72506 18.0019 3.6619 18.0019H14.3344C15.2713 18.0019 16.0942 17.2634 16.333 16.2017L17.9275 9.19197C18.1148 8.36536 17.9348 7.50568 17.4388 6.88847ZM9 1.49893C11.1896 1.49893 12.9825 3.54894 13.1 6.12431H4.89998C5.01755 3.55261 6.81039 1.49893 9 1.49893ZM16.4653 8.85765L14.8745 15.871C14.7937 16.2311 14.5622 16.5029 14.3381 16.5029H3.6619C3.43779 16.5029 3.20634 16.2311 3.12551 15.871L1.53474 8.85765C1.45024 8.48659 1.3988 7.62324 2.07112 7.62324H15.9289C16.6526 7.62324 16.5498 8.48659 16.4653 8.85765Z" fill="#333333"/>
<path d="M5.27827 9.11536C4.86313 9.11536 4.52881 9.44968 4.52881 9.86482V14.549C4.52881 14.9641 4.86313 15.2984 5.27827 15.2984C5.69342 15.2984 6.02774 14.9641 6.02774 14.549V9.86482C6.03141 9.45335 5.69342 9.11536 5.27827 9.11536Z" fill="#333333"/>
<path d="M8.91206 9.11536C8.49692 9.11536 8.1626 9.44968 8.1626 9.86482V14.549C8.1626 14.9641 8.49692 15.2984 8.91206 15.2984C9.32721 15.2984 9.66153 14.9641 9.66153 14.549V9.86482C9.66153 9.45335 9.32353 9.11536 8.91206 9.11536Z" fill="#333333"/>
<path d="M12.5415 9.11536C12.1263 9.11536 11.792 9.44968 11.792 9.86482V14.549C11.792 14.9641 12.1263 15.2984 12.5415 15.2984C12.9566 15.2984 13.2909 14.9641 13.2909 14.549V9.86482C13.2909 9.45335 12.9566 9.11536 12.5415 9.11536Z" fill="#333333"/>
</svg>
